HIERARCHY
ROOT mixamorig:Hips
{
  OFFSET 0.000000 0.000000 0.000000
  CHANNELS 6 Xposition Yposition Zposition Xrotation Yrotation Zrotation
  JOINT mixamorig:Spine
  {
    OFFSET 0.391229 23.748969 -6.654046
    CHANNELS 3 Xrotation Yrotation Zrotation
    JOINT mixamorig:Spine2
    {
      OFFSET 0.391229 23.748969 -6.654046
      CHANNELS 3 Xrotation Yrotation Zrotation
      JOINT mixamorig:Neck
      {
        OFFSET 0.000000 3.197322 0.000000
        CHANNELS 3 Xrotation Yrotation Zrotation
        JOINT mixamorig:Head
        {
          OFFSET 0.000000 10.000000 0.000000
          CHANNELS 3 Xrotation Yrotation Zrotation
          End Site
          {
            OFFSET 0.000000 3.000000 0.000000
          }
        }
      }
      JOINT mixamorig:LeftShoulder
      {
        OFFSET 16.111384 1.874518 -2.260760
        CHANNELS 3 Xrotation Yrotation Zrotation
        JOINT mixamorig:LeftArm
        {
          OFFSET 10.000000 -2.000000 0.000000
          CHANNELS 3 Xrotation Yrotation Zrotation
          JOINT mixamorig:LeftForeArm
          {
            OFFSET 24.544675 0.000000 0.000000
            CHANNELS 3 Xrotation Yrotation Zrotation
            JOINT mixamorig:LeftHand
            {
              OFFSET 25.104951 0.000000 0.000000
              CHANNELS 3 Xrotation Yrotation Zrotation
              End Site
              {
                OFFSET 7.531485 0.000000 0.000000
              }
            }
          }
        }
      }
      JOINT mixamorig:RightShoulder
      {
        OFFSET -16.111384 1.874518 2.260760
        CHANNELS 3 Xrotation Yrotation Zrotation
        JOINT mixamorig:RightArm
        {
          OFFSET -10.000000 -2.000000 0.000000
          CHANNELS 3 Xrotation Yrotation Zrotation
          JOINT mixamorig:RightForeArm
          {
            OFFSET -24.544675 0.000000 0.000000
            CHANNELS 3 Xrotation Yrotation Zrotation
            JOINT mixamorig:RightHand
            {
              OFFSET -25.104951 0.000000 0.000000
              CHANNELS 3 Xrotation Yrotation Zrotation
              End Site
              {
                OFFSET -7.531485 0.000000 0.000000
              }
            }
          }
        }
      }
    }
  }
  JOINT mixamorig:LeftUpLeg
  {
    OFFSET 8.635911 0.170833 1.127908
    CHANNELS 3 Xrotation Yrotation Zrotation
    JOINT mixamorig:LeftLeg
    {
      OFFSET 6.997395 -36.028311 -8.791602
      CHANNELS 3 Xrotation Yrotation Zrotation
      JOINT mixamorig:LeftFoot
      {
        OFFSET 3.686508 -40.421684 12.320321
        CHANNELS 3 Xrotation Yrotation Zrotation
        JOINT mixamorig:LeftToeBase
        {
          OFFSET 3.864903 -5.928231 -8.540897
          CHANNELS 3 Xrotation Yrotation Zrotation
          End Site
          {
            OFFSET 1.159471 -1.778469 -2.562269
          }
        }
      }
    }
  }
  JOINT mixamorig:RightUpLeg
  {
    OFFSET -8.635911 -0.170833 -1.127908
    CHANNELS 3 Xrotation Yrotation Zrotation
    JOINT mixamorig:RightLeg
    {
      OFFSET -2.459540 -37.604333 2.039564
      CHANNELS 3 Xrotation Yrotation Zrotation
      JOINT mixamorig:RightFoot
      {
        OFFSET -2.969057 -39.552203 15.036660
        CHANNELS 3 Xrotation Yrotation Zrotation
        JOINT mixamorig:RightToeBase
        {
          OFFSET -8.393352 -1.096435 -7.167831
          CHANNELS 3 Xrotation Yrotation Zrotation
          End Site
          {
            OFFSET -2.518006 -0.328930 -2.150349
          }
        }
      }
    }
  }
}
MOTION
Frames: 12
Frame Time: 0.041667
0.458302 0.140511 0.000000 14.187472 -0.229924 -0.019338 0.000246 0.014956 0.053393 -15.529404 7.678879 0.200031 -0.564174 -4.106518 9.201302 -1.208680 -3.960994 9.235425 0.000000 0.000000 0.000000 -10.515329 17.931573 -60.496615 -156.749627 74.411635 -162.296062 0.000000 0.000000 0.000000 0.000000 0.000000 0.000000 -25.415467 -27.757230 84.771721 8.210274 -56.124289 -4.436254 0.000000 0.000000 0.000000 -11.998760 -2.245256 -0.232927 -4.855655 0.068339 1.412566 -2.222562 4.793634 -4.462137 0.000000 0.000000 0.000000 -13.180412 0.832383 -0.230083 -1.490948 -0.222989 -0.819470 -0.574395 -3.038047 1.108153 0.000000 0.000000 0.000000
1.175636 0.141614 0.000000 14.180721 -0.230246 -0.022191 0.000246 0.014942 0.053344 -15.529345 7.682204 0.204362 -0.780501 -4.252127 9.216427 -1.444626 -4.070063 9.265160 0.000000 0.000000 0.000000 -10.352868 17.706142 -60.375468 -128.433218 74.158289 -134.074756 0.000000 0.000000 0.000000 0.000000 0.000000 0.000000 -25.414614 -27.781606 84.718429 -17.708117 -56.089376 21.817105 0.000000 0.000000 0.000000 -12.707391 -2.388569 -0.153771 -3.732591 0.182822 1.494825 -2.306891 5.245485 -4.872710 0.000000 0.000000 0.000000 -13.543829 0.850554 -0.257282 -1.017484 -0.226733 -0.755961 -0.727415 -2.826631 1.253254 0.000000 0.000000 0.000000
2.865920 0.145459 0.000000 14.420218 -0.236528 -0.040022 0.000252 0.015447 0.055147 -15.545701 6.667420 0.171915 0.592590 -3.959012 8.918593 -0.032401 -4.002994 8.858781 0.000000 0.000000 0.000000 -11.725459 20.264788 -59.778214 -28.480055 74.713425 -27.992822 0.000000 0.000000 0.000000 0.000000 0.000000 0.000000 -25.337342 -28.065727 83.938094 174.314984 -55.214967 -177.073681 0.000000 0.000000 0.000000 -13.259210 -2.474675 -0.240364 -6.791819 0.484945 3.147394 -7.162676 13.042830 -13.133823 0.000000 0.000000 0.000000 -13.928109 0.834381 -0.472158 -1.399692 -0.678223 -2.016119 -2.408722 -6.277700 3.684743 0.000000 0.000000 0.000000
5.020874 0.150238 0.000000 14.582564 -0.257988 -0.169862 0.000245 0.015795 0.056388 -15.563994 5.526569 0.266011 0.030404 -4.756078 8.795961 -0.697677 -4.705485 8.768982 0.000000 0.000000 0.000000 -11.979944 21.161413 -58.652644 157.073778 73.805305 162.564274 0.000000 0.000000 0.000000 0.000000 0.000000 0.000000 -25.272897 -28.697950 82.482348 164.207454 -53.780435 -172.018593 0.000000 0.000000 0.000000 -17.349720 -3.292979 0.265713 -2.536888 1.596064 5.649043 -11.926152 22.877240 -23.226829 0.000000 0.000000 0.000000 -17.099981 0.985084 -0.730745 1.451618 -1.119394 -2.788834 -4.788556 -7.743328 6.629408 0.000000 0.000000 0.000000
7.247402 0.153706 0.000000 14.720184 -0.302601 -0.463051 0.000207 0.016093 0.057451 -15.590822 3.845923 0.524587 -0.832852 -5.476893 8.690486 -1.640291 -5.291754 8.735869 0.000000 0.000000 0.000000 -12.512480 22.216247 -58.344479 142.952949 72.422240 152.402675 0.000000 0.000000 0.000000 0.000000 0.000000 0.000000 -25.266937 -29.792600 80.270525 150.890783 -52.131599 -165.498750 0.000000 0.000000 0.000000 -18.033462 -3.467312 0.871682 -0.775060 2.466880 8.175917 -14.029434 26.802771 -27.526656 0.000000 0.000000 0.000000 -20.252750 1.166307 -0.780281 3.161582 -1.482135 -3.587034 -6.358725 -8.074503 8.495738 0.000000 0.000000 0.000000
9.361078 0.155217 0.000000 14.860764 -0.354429 -0.809783 0.019453 0.016134 0.058767 -15.624688 1.718285 0.835583 -1.237502 -6.021413 8.375358 -2.083512 -5.780765 8.465208 0.000000 0.000000 0.000000 -12.960436 22.933510 -58.490446 142.162154 68.138859 153.935480 0.000000 0.000000 0.000000 0.000000 0.000000 0.000000 -25.178513 -31.132637 77.432654 138.010644 -51.528708 -158.991475 0.000000 0.000000 0.000000 -17.581847 -3.476714 1.995240 -0.022945 2.847592 9.408078 -12.313951 20.268067 -21.576156 0.000000 0.000000 0.000000 -22.052389 1.223396 -1.022172 2.684860 -1.647920 -4.120138 -7.367947 -7.089695 9.559427 0.000000 0.000000 0.000000
11.451038 0.156343 0.000000 14.928588 -0.410664 -1.195290 0.118697 0.014913 0.060452 -15.642500 0.596285 1.205004 -1.206705 -6.562215 7.875645 -2.069437 -6.335847 7.966204 0.000000 0.000000 0.000000 -12.700343 22.607459 -58.219039 137.910410 64.819177 152.622468 0.000000 0.000000 0.000000 0.000000 0.000000 0.000000 -24.553180 -31.605625 75.126029 134.173662 -51.763948 -156.816805 0.000000 0.000000 0.000000 -17.371837 -3.595765 3.894823 1.402927 2.989321 9.874786 -12.854956 14.467888 -17.816509 0.000000 0.000000 0.000000 -18.766161 0.924408 -1.772519 -1.399389 -1.294939 -3.679301 -7.701163 -7.434457 9.987420 0.000000 0.000000 0.000000
13.685961 0.156077 0.000000 15.000000 -0.452628 -1.481862 0.336395 0.012069 0.063559 -15.640600 0.716054 1.485936 -0.898656 -7.198018 6.665934 -1.697198 -7.047288 6.725929 0.000000 0.000000 0.000000 -13.063418 23.336552 -58.020851 132.720215 60.518602 151.472240 0.000000 0.000000 0.000000 0.000000 0.000000 0.000000 -24.445681 -32.243375 73.692329 134.946580 -51.756071 -157.234689 0.000000 0.000000 0.000000 -16.708444 -3.644391 5.504018 1.335376 2.862107 9.487526 -14.972864 15.442789 -20.038648 0.000000 0.000000 0.000000 -9.846987 0.240298 -3.831639 -11.142314 -0.349228 -2.655534 -8.583133 -8.053828 11.085436 0.000000 0.000000 0.000000
16.103064 0.153351 0.000000 15.000000 -0.464689 -1.565883 0.507933 0.009717 0.065630 -15.626716 1.591249 1.569903 -0.909285 -8.345405 5.756998 -1.720493 -8.216404 5.828498 0.000000 0.000000 0.000000 -13.342118 23.418771 -58.891250 125.977889 57.812860 148.584872 0.000000 0.000000 0.000000 0.000000 0.000000 0.000000 -23.599026 -31.226624 73.529763 138.342144 -51.567428 -159.176061 0.000000 0.000000 0.000000 -13.715541 -3.326402 6.225576 -1.584324 2.435840 8.314853 -14.116805 17.758030 -21.188911 0.000000 0.000000 0.000000 -1.314892 -0.381321 -6.913714 -21.032317 1.083483 -1.065367 -8.728402 -8.672904 11.310835 0.000000 0.000000 0.000000
18.406892 0.146593 0.000000 15.000000 -0.485392 -1.714425 0.627952 0.008108 0.067217 -15.630097 1.378359 1.714114 -1.353037 -7.876966 5.616719 -2.083621 -7.712457 5.754446 0.000000 0.000000 0.000000 -13.859023 22.619251 -62.473235 126.495876 57.779926 148.946771 0.000000 0.000000 0.000000 0.000000 0.000000 0.000000 -21.693153 -28.877464 73.311795 143.149693 -52.081454 -161.463184 0.000000 0.000000 0.000000 -8.155972 -2.685886 6.933425 -8.663705 1.587678 6.146404 -10.049883 16.253495 -17.199945 0.000000 0.000000 0.000000 -3.929631 -0.696485 -9.693828 -21.913661 2.378904 1.032962 -6.369649 -8.070212 8.450689 0.000000 0.000000 0.000000
20.162930 0.138931 0.000000 15.000000 -0.526356 -2.011706 0.601531 0.008579 0.067293 -15.630432 1.357237 2.012050 -1.333994 -7.921782 5.542466 -2.058543 -7.761825 5.679229 0.000000 0.000000 0.000000 -15.463929 22.859317 -67.782076 123.869533 53.577126 149.768149 0.000000 0.000000 0.000000 0.000000 0.000000 0.000000 -22.024250 -28.692840 74.524301 126.286584 -51.906857 -139.156530 0.000000 0.000000 0.000000 0.391303 -1.517873 6.575421 -17.626307 1.493723 6.551500 -5.373137 15.140940 -13.336655 0.000000 0.000000 0.000000 -12.603201 -1.307583 -12.518493 -16.978526 3.681066 4.254313 -3.287740 -2.181584 4.173678 0.000000 0.000000 0.000000
21.122115 0.132392 0.000000 15.000000 -0.575880 -2.369344 0.569832 0.009128 0.067324 -15.636851 0.952697 2.370753 -1.532256 -8.500143 5.486666 -2.293605 -8.322181 5.658701 0.000000 0.000000 0.000000 -16.400483 22.303446 -72.291837 126.710164 49.432101 153.997677 0.000000 0.000000 0.000000 0.000000 0.000000 0.000000 -22.979271 -28.243656 77.828140 18.769972 -50.913184 -22.810867 0.000000 0.000000 0.000000 6.764554 -0.628089 6.396953 -23.611451 1.711904 7.385828 2.164825 17.236892 -9.895560 0.000000 0.000000 0.000000 -21.023321 -1.960022 -13.865705 -9.311452 3.726598 6.286567 -1.651697 -2.586367 2.311611 0.000000 0.000000 0.000000
